<?xml version="1.0" encoding="UTF-8"?>
<svg width="13px" height="23px" viewBox="0 0 13 23" version="1.1" xmlns="http://www.w3.org/2000/svg" xmlns:xlink="http://www.w3.org/1999/xlink">
    <!-- Generator: Sketch 40.1 (33804) - http://www.bohemiancoding.com/sketch -->
    <title>noun_26636_cc</title>
    <desc>Created with Sketch.</desc>
    <defs></defs>
    <g id="Page-1" stroke="none" stroke-width="1" fill="none" fill-rule="evenodd">
        <g id="Desktop-HD-Copy-6" transform="translate(-1218.000000, -964.000000)" fill="#15D1E7">
            <g id="noun_26636_cc" transform="translate(1218.000000, 964.000000)">
                <g id="Group">
                    <path d="M12.5383693,1.28557895 C12.5099141,1.11428947 12.3899736,0.970842105 12.2256674,0.911223684 C11.2230017,0.549276316 9.89784302,0.190657895 8.47569166,0.18975 C7.36012284,0.189447368 6.17815841,0.414605263 5.07941797,1.04831579 L5.07941797,1.04831579 C4.52622312,1.36638158 4.09021501,1.76857895 3.75823691,2.22131579 C3.25858692,2.90132895 2.99269846,3.68393421 2.84277287,4.47834211 C2.72191448,5.12082895 2.67632486,5.77542105 2.65184721,6.41003947 C2.36545873,6.41669737 2.04082392,6.41881579 1.74525632,6.41881579 C1.48671116,6.41881579 1.25019588,6.41730263 1.07793443,6.41548684 C0.991956693,6.41457895 0.922501367,6.41397368 0.874158011,6.41336842 C0.825814656,6.41246053 0.800113126,6.41215789 0.799501184,6.41215789 C0.669769649,6.41034211 0.542485878,6.46118421 0.449776786,6.55106579 C0.357373664,6.64155263 0.30474672,6.76714474 0.305664632,6.89576316 L0.32494078,10.0915526 C0.326776603,10.3578684 0.544627672,10.5921053 0.813269862,10.5921053 L1.15259126,10.5921053 C1.62837555,10.5921053 2.51630224,10.5718289 3.19892265,10.5851447 C3.29989295,12.7804342 3.32375866,16.0703421 3.32375866,18.6230395 C3.32375866,19.6991974 3.3191691,20.6370526 3.31549745,21.3125263 C3.31304968,21.6493553 3.31121386,21.9171842 3.30937804,22.103 C3.30784818,22.2885132 3.30693027,22.3877763 3.30693027,22.3883816 C3.30570639,22.5166974 3.35649751,22.6404737 3.44859466,22.7318684 C3.54038584,22.8226579 3.66583379,22.8735 3.79587129,22.8728947 L8.12045979,22.8514079 C8.2504973,22.8508026 8.37288554,22.7993553 8.46406478,22.7076579 C8.55554999,22.6162632 8.6054232,22.4943026 8.60419931,22.3653816 C8.60419931,22.3653816 8.58155749,19.7352105 8.55493805,16.8980395 C8.53229622,14.4582237 8.50720663,11.8689079 8.49282601,10.6629211 C8.75963238,10.6583816 9.07049851,10.6565658 9.37279747,10.6568684 C9.72619351,10.6568684 10.0701045,10.6589868 10.325284,10.6611053 C10.4525677,10.6620132 10.5581276,10.6632237 10.6312546,10.6641316 C10.7049935,10.6650395 10.7459935,10.6653421 10.7459935,10.6653421 C10.876031,10.6671579 11.001173,10.6172237 11.0938821,10.5270395 C11.1865912,10.4368553 11.2389122,10.3139868 11.2392181,10.1853684 L11.2447256,7.22532895 C11.2450316,7.09671053 11.1939345,6.93177632 11.1018373,6.84128947 C11.0100462,6.75080263 10.886434,6.65819737 10.7560906,6.65819737 L10.5945381,6.65819737 C10.49112,6.65819737 10.3439482,6.70177632 10.1674031,6.70177632 C9.62491724,6.70177632 8.80430409,6.72084211 8.15503447,6.70994737 C8.16666135,6.38159211 8.19664647,6.10226316 8.24560177,5.85471053 C8.29272124,5.61381579 8.35758701,5.41861842 8.43407966,5.25792105 C8.49160213,5.13747368 8.55554999,5.04244737 8.6240874,4.96285526 C8.72811741,4.84361842 8.84071459,4.76311842 8.98574466,4.70319737 C9.13046875,4.64388158 9.31252126,4.60847368 9.54567086,4.60817105 C9.95964908,4.60696053 10.5281425,4.72801316 11.2401361,5.00007895 C11.2453376,5.00219737 11.251151,5.00280263 11.2566585,5.00492105 C11.2624719,5.00673684 11.2670615,5.01006579 11.2728749,5.01157895 C11.2832779,5.01490789 11.2936809,5.01521053 11.3040839,5.01763158 C11.3206063,5.02156579 11.3368228,5.02519737 11.3530392,5.02731579 C11.3689497,5.02913158 11.3845542,5.02973684 11.3998527,5.03034211 C11.4160692,5.03064474 11.4316737,5.03094737 11.4478901,5.03003947 C11.4638006,5.02882895 11.4790991,5.02671053 11.4940917,5.02398684 C11.5096962,5.02156579 11.5253007,5.01853947 11.5402932,5.01460526 C11.5549798,5.01067105 11.5696664,5.00552632 11.583741,5.00007895 C11.5987336,4.99493421 11.6134202,4.98918421 11.6274948,4.98222368 C11.6412635,4.97556579 11.6541143,4.968 11.667271,4.96013158 C11.6807337,4.95196053 11.6941964,4.94318421 11.7070472,4.93380263 C11.719286,4.92502632 11.730301,4.91503947 11.7413159,4.90475 C11.7535547,4.89385526 11.7651816,4.88296053 11.7755846,4.87115789 C11.7859876,4.85965789 11.7951667,4.84755263 11.8046518,4.83514474 C11.8141369,4.82243421 11.823622,4.80942105 11.8318832,4.7955 C11.8398384,4.78218421 11.8468758,4.76735526 11.8539131,4.75252632 C11.8585026,4.74284211 11.8643161,4.73406579 11.8682937,4.72377632 C11.8707415,4.71832895 11.8713534,4.71257895 11.8734952,4.70652632 C11.8750251,4.70138158 11.8783907,4.69684211 11.8799206,4.69139474 C11.9781371,4.37121053 12.1467269,3.83464474 12.291451,3.26842105 C12.3636601,2.98455263 12.4306677,2.69281579 12.4802349,2.41167105 C12.5294962,2.13022368 12.562847,1.86148684 12.5631529,1.61090789 C12.562541,1.50014474 12.5558096,1.39271053 12.5383693,1.28557895 L12.5383693,1.28557895 Z M8.45916925,3.88609211 C8.21837038,4.00926316 8.00847455,4.18297368 7.84049669,4.39209211 C7.587459,4.70682895 7.42468264,5.09268421 7.32248846,5.53180263 C7.22029428,5.97182895 7.17654048,6.47056579 7.17654048,7.03285526 C7.17654048,7.09035526 7.17715242,7.14876316 7.17776436,7.20777632 C7.18204795,7.46471053 7.38919005,7.60240789 7.64895909,7.61088158 C8.34075862,7.63267105 9.47437971,7.56578947 10.1670972,7.56578947 L10.2711272,7.56578947 L10.2674555,9.62761842 C10.0187014,9.62580263 9.70079795,9.65909211 9.37279747,9.65909211 C8.85478924,9.65909211 8.31842277,9.68118421 7.97604167,9.69782895 C7.71382486,9.71084211 7.51004844,9.93478947 7.51372009,10.1944474 C7.52687682,11.0163947 7.55625,14.0660132 7.58256347,16.9022763 C7.59572021,18.3207105 7.60795903,19.6898158 7.61713815,20.7018158 C7.62142174,21.1929868 7.62509339,21.6006316 7.62754115,21.8899474 L4.28389441,21.9075 C4.28909591,21.2698553 4.29613323,20.0602368 4.29613323,18.6109342 C4.29613323,15.8712105 4.26981976,12.2841184 4.14804346,10.0676447 C4.13458075,9.81827632 3.93202821,9.62186842 3.67990844,9.61309211 C3.02115373,9.59009211 1.92639091,9.58585526 1.29517356,9.58555263 L1.28171085,7.37936842 C1.41939763,7.38027632 1.5778904,7.38118421 1.74556229,7.38118421 C2.2210406,7.38088158 2.76628022,7.37603947 3.15149721,7.35394737 C3.40361698,7.33972368 3.60310982,7.13605263 3.6095352,6.88668421 C3.63584867,5.87438158 3.69398308,4.84664474 3.96599095,3.97264474 C4.10153593,3.53503947 4.28787202,3.13677632 4.5451933,2.78663158 C4.80312652,2.43678947 5.13082103,2.13234211 5.56958288,1.87934211 L5.56958288,1.87934211 C6.4914723,1.34852632 7.48954841,1.15211842 8.4763036,1.15181579 C9.59952168,1.15090789 10.6982621,1.41147368 11.5871067,1.70926316 C11.5800694,1.85967105 11.5574276,2.04518421 11.521935,2.24643421 C11.4564573,2.61806579 11.3502855,3.04114474 11.2422778,3.42851316 C11.1927106,3.60585526 11.1431434,3.77472368 11.0963299,3.93027632 C10.522635,3.74657895 10.0116641,3.64761842 9.54567086,3.64671053 C9.14913296,3.64640789 8.78074435,3.72055263 8.45916925,3.88609211 L8.45916925,3.88609211 Z M8.45916925,3.88609211 C8.21837038,4.00926316 8.00847455,4.18297368 7.84049669,4.39209211 C7.587459,4.70682895 7.42468264,5.09268421 7.32248846,5.53180263 C7.22029428,5.97182895 7.17654048,6.47056579 7.17654048,7.03285526 C7.17654048,7.09035526 7.17715242,7.14876316 7.17776436,7.20777632 C7.18204795,7.46471053 7.38919005,7.60240789 7.64895909,7.61088158 C8.34075862,7.63267105 9.47437971,7.56578947 10.1670972,7.56578947 L10.2711272,7.56578947 L10.2674555,9.62761842 C10.0187014,9.62580263 9.70079795,9.65909211 9.37279747,9.65909211 C8.85478924,9.65909211 8.31842277,9.68118421 7.97604167,9.69782895 C7.71382486,9.71084211 7.51004844,9.93478947 7.51372009,10.1944474 C7.52687682,11.0163947 7.55625,14.0660132 7.58256347,16.9022763 C7.59572021,18.3207105 7.60795903,19.6898158 7.61713815,20.7018158 C7.62142174,21.1929868 7.62509339,21.6006316 7.62754115,21.8899474 L4.28389441,21.9075 C4.28909591,21.2698553 4.29613323,20.0602368 4.29613323,18.6109342 C4.29613323,15.8712105 4.26981976,12.2841184 4.14804346,10.0676447 C4.13458075,9.81827632 3.93202821,9.62186842 3.67990844,9.61309211 C3.02115373,9.59009211 1.92639091,9.58585526 1.29517356,9.58555263 L1.28171085,7.37936842 C1.41939763,7.38027632 1.5778904,7.38118421 1.74556229,7.38118421 C2.2210406,7.38088158 2.76628022,7.37603947 3.15149721,7.35394737 C3.40361698,7.33972368 3.60310982,7.13605263 3.6095352,6.88668421 C3.63584867,5.87438158 3.69398308,4.84664474 3.96599095,3.97264474 C4.10153593,3.53503947 4.28787202,3.13677632 4.5451933,2.78663158 C4.80312652,2.43678947 5.13082103,2.13234211 5.56958288,1.87934211 L5.56958288,1.87934211 C6.4914723,1.34852632 7.48954841,1.15211842 8.4763036,1.15181579 C9.59952168,1.15090789 10.6982621,1.41147368 11.5871067,1.70926316 C11.5800694,1.85967105 11.5574276,2.04518421 11.521935,2.24643421 C11.4564573,2.61806579 11.3502855,3.04114474 11.2422778,3.42851316 C11.1927106,3.60585526 11.1431434,3.77472368 11.0963299,3.93027632 C10.522635,3.74657895 10.0116641,3.64761842 9.54567086,3.64671053 C9.14913296,3.64640789 8.78074435,3.72055263 8.45916925,3.88609211 L8.45916925,3.88609211 Z" id="Shape"></path>
                </g>
            </g>
        </g>
    </g>
</svg>