<?xml version="1.0" encoding="UTF-8"?>
<svg width="322px" height="47px" viewBox="0 0 322 47" version="1.1" xmlns="http://www.w3.org/2000/svg" xmlns:xlink="http://www.w3.org/1999/xlink">
    <!-- Generator: Sketch 40.1 (33804) - http://www.bohemiancoding.com/sketch -->
    <title>Logo</title>
    <desc>Created with Sketch.</desc>
    <defs></defs>
    <g id="Page-1" stroke="none" stroke-width="1" fill="none" fill-rule="evenodd">
        <g id="Desktop-HD" transform="translate(-549.000000, -17.000000)">
            <g id="Menu" transform="translate(61.000000, 0.000000)">
                <g id="Logo" transform="translate(488.000000, 17.000000)">
                    <path d="M119.027618,17.9535545 L124.597876,17.9535545 L124.597876,0.846445498 L133.783915,0.846445498 L133.783915,45.9085308 L124.646737,45.9085308 L124.646737,28.3336493 L119.07648,28.3336493 L119.07648,45.9085308 L109.743854,45.9085308 L109.743854,0.846445498 L119.027618,0.846445498 L119.027618,17.9535545 L119.027618,17.9535545 Z" id="Shape" fill="#FFFFFF"></path>
                    <path d="M68.3578149,45.9308057 L59.5626707,45.9308057 L59.5626707,0.846445498 C59.7092564,0.846445498 59.8069803,0.824170616 59.9047041,0.824170616 C63.3250379,0.824170616 66.7453718,0.779620853 70.1657056,0.846445498 C72.2179059,0.890995261 74.2701062,0.957819905 76.1268589,1.60379147 C78.2279211,2.33886256 79.5960546,3.45260664 80.475569,4.9450237 C81.4039454,6.52654028 81.9414264,8.13033175 82.0391502,9.82322275 C82.1368741,11.7388626 82.3811836,13.6322275 82.2834598,15.5478673 C82.185736,18.042654 81.7459788,20.5151659 80.4267071,22.8540284 C79.7426404,24.0345972 78.7165402,25.0592417 77.152959,25.749763 C76.8597876,25.8611374 76.7620637,25.9725118 76.8597876,26.2398104 C77.4461305,27.9995261 77.9836115,29.7815166 78.5699545,31.5635071 C79.2051593,33.6350711 79.8403642,35.7066351 80.524431,37.7781991 C81.061912,39.47109 81.599393,41.163981 82.1368741,42.856872 C82.4789074,43.8592417 82.7720789,44.8616114 83.1141123,45.9085308 L73.6349014,45.9085308 C72.9996965,43.7255924 72.3644917,41.5203791 71.7781487,39.3151659 C71.1918058,37.1099526 70.6543247,34.9047393 70.0191199,32.7218009 C69.4327769,30.5388626 69.2861912,28.3113744 68.6509863,26.128436 C68.5532625,26.128436 68.4555387,26.1507109 68.4066768,26.1507109 C68.3578149,32.7440758 68.3578149,39.3151659 68.3578149,45.9308057 L68.3578149,45.9308057 Z M68.4555387,19.8023697 C70.6054628,20.0473934 72.3156297,19.2900474 72.9996965,17.8867299 C73.7814871,16.3274882 73.9280728,14.7236967 73.5371775,13.0976303 C73.3905918,12.4516588 72.9996965,11.7834123 72.5110774,11.2265403 C71.5827011,10.2018957 70.0191199,10.2241706 68.4555387,10.335545 C68.4555387,13.4763033 68.4555387,16.6170616 68.4555387,19.8023697 L68.4555387,19.8023697 Z" id="Shape" fill="#FFFFFF"></path>
                    <path d="M283.887709,45.9308057 L275.092564,45.9308057 L275.092564,0.824170616 L275.825493,0.824170616 C279.050379,0.824170616 282.275266,0.779620853 285.500152,0.846445498 C287.454628,0.890995261 289.409105,0.935545024 291.216995,1.49241706 C292.927162,2.00473934 294.197572,2.82890995 295.17481,3.87582938 C296.44522,5.25687204 296.933839,6.81611374 297.324734,8.41990521 C297.813354,10.6473934 298.008801,12.8971564 297.862215,15.1469194 C297.71563,17.6862559 297.422458,20.2478673 296.054325,22.6535545 C295.321396,23.9009479 294.441882,25.0146919 292.682853,25.7274882 C292.340819,25.8611374 292.291958,25.9947867 292.389681,26.3066351 C293.415781,29.4251185 294.344158,32.5658768 295.321396,35.6843602 C296.103187,38.156872 296.933839,40.607109 297.71563,43.057346 C298.008801,43.992891 298.253111,44.9507109 298.546282,45.9085308 L289.067071,45.9085308 C288.138695,42.6118483 287.112595,39.3151659 286.281942,36.0184834 C285.45129,32.7440758 284.816085,29.4251185 284.083156,26.128436 C284.034294,26.128436 283.936571,26.128436 283.887709,26.1507109 C283.887709,32.7440758 283.887709,39.3151659 283.887709,45.9308057 L283.887709,45.9308057 Z M284.034294,10.2909953 L284.034294,19.8469194 C284.571775,19.8246445 285.060395,19.8469194 285.549014,19.7578199 C287.601214,19.4682464 288.431866,18.3990521 288.822762,17.1516588 C289.262519,15.7483412 289.311381,14.3004739 288.969347,12.8748815 C288.7739,12.0507109 288.431866,11.2488152 287.405766,10.6919431 C286.379666,10.1796209 285.20698,10.2909953 284.034294,10.2909953 L284.034294,10.2909953 Z" id="Shape" fill="#FFFFFF"></path>
                    <path d="M260.971472,0.846445498 L270.010926,0.846445498 L270.010926,1.49241706 C270.010926,12.6075829 270.010926,23.7227488 269.962064,34.8379147 C269.962064,36.0407583 269.668892,37.2436019 269.424583,38.4464455 C269.229135,39.4488152 268.935964,40.4511848 268.545068,41.4090047 C268.056449,42.6118483 267.225797,43.7478673 266.004249,44.7056872 C264.00091,46.2649289 261.460091,46.9109005 258.479514,46.9331754 C256.134143,46.9554502 253.984219,46.621327 252.029742,45.685782 C250.221851,44.8170616 249.098027,43.614218 248.365099,42.2554502 C247.63217,40.8744076 247.192413,39.4265403 246.752656,37.978673 C246.459484,36.9985782 246.459484,35.9739336 246.459484,34.971564 L246.459484,1.47014218 L246.459484,0.824170616 L255.645524,0.824170616 L255.645524,1.4478673 C255.645524,12.1175355 255.645524,22.7872038 255.694385,33.4791469 C255.694385,34.214218 255.987557,34.9938389 256.32959,35.6843602 C256.720486,36.463981 257.453414,36.664455 258.772686,36.5753555 C259.456753,36.5308057 260.336267,35.9516588 260.531715,35.3725118 C260.727162,34.592891 260.971472,33.8132701 260.971472,33.0336493 C261.020334,22.5199052 260.971472,12.0061611 260.971472,1.51469194 L260.971472,0.846445498 L260.971472,0.846445498 Z" id="Shape" fill="#FFFFFF"></path>
                    <path d="M48.0801214,45.9308057 C47.5426404,42.6118483 47.0540212,39.3374408 46.5165402,36.0407583 L40.8974203,36.0407583 C40.7996965,36.7535545 40.6531108,37.4440758 40.5553869,38.156872 C40.3599393,39.2483412 40.1644917,40.3398104 40.0179059,41.4312796 C39.9201821,42.1440758 39.8224583,42.856872 39.7247344,43.5696682 C39.6270106,44.2824645 39.5292868,44.9952607 39.431563,45.7080569 C39.431563,45.8194313 39.1872534,45.9753555 39.0406677,45.9753555 C36.108953,45.9976303 33.2261002,45.9976303 30.2455235,45.9976303 C30.2943854,45.3739336 30.3432473,44.7947867 30.4409712,44.2156398 C30.538695,43.436019 30.7341426,42.678673 30.8318665,41.8990521 C31.0273141,40.6516588 31.2227618,39.4265403 31.4182094,38.1791469 C31.5159332,37.3995261 31.6136571,36.5976303 31.7113809,35.7957346 C31.9068285,34.6597156 32.1022762,33.5236967 32.2488619,32.3654028 C32.3465857,31.6080569 32.4443096,30.8507109 32.5420334,30.0933649 C32.737481,28.9127962 32.9329287,27.7545024 33.0795144,26.5739336 C33.1772382,25.8388626 33.2749621,25.1260664 33.3726859,24.3909953 C33.5681335,23.1658768 33.7635812,21.9407583 33.9101669,20.7156398 C34.0078907,19.936019 34.1056146,19.1563981 34.2033384,18.3990521 C34.398786,17.2407583 34.5942337,16.0824645 34.7408194,14.9241706 C34.8385432,14.1668246 34.9362671,13.4094787 35.0339909,12.6521327 C35.2294385,11.471564 35.4248862,10.3132701 35.5714719,9.13270142 C35.6691958,8.39763033 35.7669196,7.68483412 35.8646434,6.94976303 C36.060091,5.72464455 36.2555387,4.49952607 36.4021244,3.27440758 C36.4998483,2.49478673 36.5975721,1.692891 36.6952959,0.868720379 L50.4254932,0.868720379 C50.523217,1.49241706 50.6698027,2.11611374 50.7675266,2.76208531 C50.9629742,4.00947867 51.1584219,5.23459716 51.3538695,6.48199052 C51.5004552,7.5957346 51.647041,8.70947867 51.7936267,9.82322275 C51.9402124,10.9592417 52.184522,12.0952607 52.3311077,13.2535545 C52.4288316,13.9663507 52.5265554,14.6791469 52.6242792,15.3919431 C52.8197269,16.6393365 53.0151745,17.864455 53.1617602,19.1118483 C53.2594841,19.8914692 53.3572079,20.6933649 53.4549317,21.4952607 C53.6503794,22.6312796 53.845827,23.7672986 53.9924127,24.9255924 C54.0901366,25.6829384 54.1878604,26.4402844 54.2855842,27.1976303 C54.4810319,28.3781991 54.6764795,29.5364929 54.8230653,30.7170616 C54.9207891,31.4521327 55.0185129,32.1649289 55.1162367,32.9 C55.3116844,34.1251185 55.507132,35.350237 55.6537178,36.5753555 C55.7514416,37.3549763 55.8491654,38.1345972 55.9468892,38.8919431 C56.1423369,40.050237 56.3377845,41.2085308 56.4843703,42.3668246 C56.5820941,43.1018957 56.6798179,43.8592417 56.7775417,44.5943128 C56.8264036,45.0398104 56.8752656,45.4853081 56.9729894,45.9753555 C54.1389985,45.9308057 51.1584219,45.9308057 48.0801214,45.9308057 L48.0801214,45.9308057 Z M45.9301973,26.5293839 C45.8813354,25.9056872 45.7836115,25.2819905 45.7347496,24.6805687 C45.6370258,23.7672986 45.539302,22.8763033 45.4415781,21.9630332 C45.2461305,20.5597156 45.0506829,19.1563981 44.9040971,17.7530806 C44.8063733,16.7952607 44.7086495,15.8374408 44.6109256,14.8796209 C44.415478,13.3649289 44.2200303,11.850237 44.0734446,10.335545 C43.9757208,9.35545024 43.9757208,8.37535545 43.9268589,7.39526066 C43.9268589,7.30616114 43.877997,7.23933649 43.8291351,7.15023697 L43.6336874,7.15023697 L43.6336874,7.66255924 C43.5848255,8.62037915 43.5848255,9.57819905 43.4871017,10.5582938 C43.3405159,12.028436 43.0962064,13.4985782 42.9496206,14.9687204 C42.8518968,15.9265403 42.754173,16.8843602 42.6564492,17.8421801 C42.4610015,19.2009479 42.2655539,20.5374408 42.0701062,21.8962085 C41.9235205,22.9654028 41.7769347,24.056872 41.630349,25.1483412 C41.5814871,25.6161137 41.5814871,26.0616114 41.5326252,26.5516588 C42.9496206,26.5293839 44.415478,26.5293839 45.9301973,26.5293839 L45.9301973,26.5293839 Z" id="Shape" fill="#FFFFFF"></path>
                    <path d="M185.235508,28.5118483 L185.235508,35.7957346 L195.643096,35.7957346 L195.643096,45.9530806 L176.049469,45.9530806 L176.049469,0.868720379 L195.594234,0.868720379 L195.594234,11.1597156 L185.235508,11.1597156 L185.235508,18.3322275 L195.594234,18.3322275 L195.594234,28.4895735 C192.222762,28.5118483 188.753566,28.5118483 185.235508,28.5118483 L185.235508,28.5118483 Z" id="Shape" fill="#FFFFFF"></path>
                    <path d="M301.82003,0.935545024 L321.413657,0.935545024 L321.413657,11.1374408 L310.859484,11.1374408 L310.859484,18.3322275 L321.364795,18.3322275 L321.364795,28.4672986 L310.859484,28.4672986 L310.859484,35.7734597 L321.560243,35.7734597 L321.560243,36.3080569 L321.560243,45.4184834 C321.560243,45.863981 321.413657,46.0421801 320.680728,46.0421801 C314.621851,46.0199052 308.514112,46.0199052 302.455235,46.0199052 L301.771168,46.0199052 C301.82003,31.0066351 301.82003,15.9933649 301.82003,0.935545024 L301.82003,0.935545024 Z" id="Shape" fill="#FFFFFF"></path>
                    <path d="M106.274659,14.3450237 C105.981487,14.0109005 105.639454,13.6545024 105.346282,13.3203791 C104.27132,12.2066351 103.147496,11.1151659 101.339605,10.5137441 C100.069196,10.0905213 98.261305,10.5137441 97.4795144,11.1597156 C96.1113809,12.2734597 95.6227618,13.6099526 95.2807284,14.9687204 C94.9875569,16.171564 94.8409712,17.3966825 94.6943854,18.6218009 C94.5966616,19.4014218 94.5966616,20.1810427 94.5477997,20.9606635 C94.4989378,21.4952607 94.401214,22.0298578 94.401214,22.564455 C94.401214,24.1236967 94.401214,25.6829384 94.5477997,27.2199052 C94.6943854,29.2023697 94.938695,31.1848341 95.7204856,33.1227488 C96.062519,34.0137441 96.5511381,34.8824645 97.5772382,35.528436 C99.0430956,36.4862559 101.241882,36.4862559 102.756601,35.6175355 C104.124734,34.8601896 105.053111,33.9023697 105.932625,32.8777251 C106.030349,32.7440758 106.176935,32.6104265 106.470106,32.4990521 L106.470106,32.9890995 L106.470106,42.3 C106.470106,42.9905213 105.883763,43.4582938 105.395144,43.9260664 C103.929287,45.2848341 102.072534,46.2649289 99.5805766,46.6658768 C96.2091047,47.2227488 92.9842185,46.3540284 90.9320182,44.5274882 C88.830956,42.6563981 87.8048558,40.4734597 87.0719272,38.2236967 C86.583308,36.6421801 86.1924127,35.0161137 85.8992413,33.4123223 C85.6060698,31.6748815 85.4594841,29.9151659 85.3128983,28.1777251 C85.2151745,27.1753555 85.2151745,26.1952607 85.1663126,25.192891 C85.1174507,23.4554502 85.0197269,21.7180095 85.0197269,19.9805687 C85.0197269,18.3767773 85.1174507,16.7729858 85.3128983,15.1914692 C85.6549317,12.4516588 86.045827,9.73412322 87.169651,7.08341232 C88.0003035,5.0563981 89.0752656,3.09620853 91.3717754,1.60379147 C92.691047,0.73507109 94.352352,0.267298578 96.2091047,0.0890995261 C98.1635812,-0.0890995261 99.9714719,0.111374408 101.681639,0.690521327 C103.636115,1.38104265 105.053111,2.47251185 106.225797,3.74218009 C106.32352,3.8535545 106.372382,4.00947867 106.372382,4.16540284 L106.372382,14.0109005 C106.372382,14.1 106.32352,14.1890995 106.32352,14.2781991 C106.372382,14.3227488 106.32352,14.3227488 106.274659,14.3450237 L106.274659,14.3450237 Z" id="Shape" fill="#FFFFFF"></path>
                    <path d="M220.611533,14.4341232 C219.78088,13.5876777 219.145675,12.8080569 218.315023,12.1398104 C217.337785,11.3156398 216.311684,10.4914692 214.601517,10.3132701 C213.819727,10.2241706 212.305008,10.6028436 211.767527,11.0037915 C210.350531,12.1398104 209.81305,13.5208531 209.471017,14.9241706 C209.177845,16.1270142 209.031259,17.3521327 208.884674,18.5772512 C208.78695,19.4236967 208.78695,20.2701422 208.738088,21.1165877 C208.689226,21.6511848 208.591502,22.185782 208.591502,22.7203791 C208.591502,24.2127962 208.591502,25.7052133 208.738088,27.1753555 C208.982398,29.336019 209.080121,31.5412322 210.155083,33.6127962 C210.643703,34.5483412 211.230046,35.4393365 212.647041,35.9293839 C214.601517,36.5753555 216.653718,36.0630332 217.924127,34.971564 C218.852504,34.1696682 219.683156,33.3232227 220.611533,32.4767773 C220.611533,32.5658768 220.660395,32.6549763 220.660395,32.7663507 C220.660395,35.9962085 220.709256,39.2260664 220.611533,42.4781991 C220.611533,42.9682464 220.074052,43.4805687 219.585432,43.9037915 C218.119575,45.2625592 216.262822,46.2649289 213.770865,46.6658768 C210.448255,47.2004739 207.125645,46.3317536 205.073445,44.5052133 C202.972382,42.6563981 201.995144,40.4734597 201.262215,38.2459716 C200.822458,36.842654 200.529287,35.3947867 200.236115,33.9691943 C199.991806,32.4545024 199.796358,30.9398104 199.649772,29.4251185 C199.503187,28.0663507 199.405463,26.7298578 199.356601,25.37109 C199.258877,23.7227488 199.210015,22.0744076 199.210015,20.4260664 C199.210015,18.8668246 199.307739,17.2853081 199.503187,15.7260664 C199.649772,14.1222749 199.894082,12.5407583 200.236115,10.9369668 C200.627011,9.08815166 201.11563,7.26161137 202.092868,5.50189573 C202.874659,4.03175355 203.949621,2.6507109 205.610926,1.58151659 C206.979059,0.73507109 208.54264,0.267298578 210.399393,0.0890995261 C212.305008,-0.0890995261 214.064036,0.0890995261 215.823065,0.690521327 C217.826404,1.38104265 219.243399,2.47251185 220.464947,3.74218009 C220.562671,3.8535545 220.611533,4.00947867 220.611533,4.16540284 L220.611533,14.0554502 C220.660395,14.1668246 220.660395,14.2336493 220.611533,14.4341232 L220.611533,14.4341232 Z" id="Shape" fill="#FFFFFF"></path>
                    <path d="M221.735357,0.846445498 L243.772079,0.846445498 L243.772079,11.649763 L237.371168,11.649763 L237.371168,45.9308057 L228.136267,45.9308057 L228.136267,11.6720379 L221.735357,11.6720379 L221.735357,0.846445498 L221.735357,0.846445498 Z" id="Shape" fill="#FFFFFF"></path>
                    <path d="M157.67739,11.6720379 L151.27648,11.6720379 L151.27648,0.868720379 L173.26434,0.868720379 L173.26434,11.6720379 L166.863429,11.6720379 L166.863429,45.9308057 L157.67739,45.9308057 L157.67739,11.6720379 L157.67739,11.6720379 Z" id="Shape" fill="#FFFFFF"></path>
                    <path d="M9.43034901,35.5061611 L16.8573596,35.5061611 L16.8573596,45.9308057 L0.146585736,45.9308057 L0.146585736,0.868720379 L9.43034901,0.868720379 L9.43034901,35.5061611 L9.43034901,35.5061611 Z" id="Shape" fill="#FFFFFF"></path>
                    <path d="M139.061002,0.846445498 L148.295903,0.846445498 L148.295903,45.9308057 L139.061002,45.9308057 L139.061002,0.846445498 L139.061002,0.846445498 Z" id="Shape" fill="#FFFFFF"></path>
                    <path d="M19.1050076,18.2654028 C19.3981791,16.9066351 19.6913505,15.5924171 19.9356601,14.2559242 C20.1311077,12.9862559 20.2776935,11.6943128 20.3754173,10.4246445 C20.5708649,7.9521327 20.6685888,5.47962085 20.8151745,3.007109 C20.8640364,2.31658768 20.9617602,1.60379147 21.0106222,0.868720379 L28.2421851,0.868720379 C28.3887709,6.72701422 27.5092564,12.5407583 25.3104704,18.2654028 L19.1050076,18.2654028 Z" id="Shape" fill="#15D1E7"></path>
                </g>
            </g>
        </g>
    </g>
</svg>