<?xml version="1.0" encoding="UTF-8"?>
<svg width="27px" height="23px" viewBox="0 0 27 23" version="1.1" xmlns="http://www.w3.org/2000/svg" xmlns:xlink="http://www.w3.org/1999/xlink">
    <!-- Generator: Sketch 40.1 (33804) - http://www.bohemiancoding.com/sketch -->
    <title>noun_20940 (1)</title>
    <desc>Created with Sketch.</desc>
    <defs></defs>
    <g id="Page-1" stroke="none" stroke-width="1" fill="none" fill-rule="evenodd">
        <g id="Desktop-HD-Copy-6" transform="translate(-1254.000000, -964.000000)" fill="#15D1E7">
            <g id="noun_20940-(1)" transform="translate(1252.000000, 962.000000)">
                <path d="M30.1225731,3.11757085 C30.3522858,2.33676619 30.0895563,1.49242409 29.4531045,0.984124494 C29.092027,0.693970142 28.6550811,0.547834008 28.2118129,0.547834008 C27.8619751,0.547834008 27.5121374,0.639610324 27.1981265,0.828104757 C26.5743194,1.19591599 25.9217105,1.49101215 25.2402997,1.69927379 C23.9378918,0.698205972 22.3228779,0.141194332 20.662905,0.141194332 C16.8582442,0.141194332 13.7061923,2.99331984 13.2095351,6.68131579 C10.1762032,6.02899798 7.41262573,4.3494914 5.42178216,1.89553391 C5.04244006,1.42535678 4.4734269,1.15708755 3.87912427,1.15708755 C3.82924781,1.15708755 3.7765614,1.16061741 3.72317251,1.16414727 C3.07126608,1.2156832 2.4889057,1.58490638 2.15944006,2.15109565 C1.49067398,3.30253543 1.1387288,4.61564271 1.1387288,5.95345901 C1.1387288,6.85710273 1.29819298,7.73603745 1.59323684,8.55708249 C1.27571345,8.91995192 1.09166228,9.39012905 1.09166228,9.8871331 C1.09166228,11.8695015 1.83629678,13.6923203 3.07688596,15.0619054 C3.00031506,15.4035956 3.01225731,15.7650531 3.12395249,16.1109793 C3.55317105,17.462209 4.33854971,18.6249443 5.35434357,19.5123507 C4.6947098,19.6627227 4.01189401,19.7396736 3.31924342,19.7396736 C2.96027339,19.7396736 2.59708845,19.7163765 2.23109357,19.6747242 C2.15382018,19.6648406 2.07654678,19.6598988 1.99786842,19.6598988 C1.16472076,19.6598988 0.410251462,20.1837298 0.127149854,20.9906554 C-0.186861111,21.8660602 0.145414474,22.8452429 0.923768275,23.3486007 C3.78358626,25.1890688 7.08807749,26.1626037 10.4789744,26.1626037 C21.476383,26.1626037 28.0853655,17.2673608 28.2040855,8.58461538 C29.0990519,7.81863613 29.8858355,6.93687753 30.5531966,5.95275304 C30.8053889,5.61812247 30.9550183,5.20230516 30.9550183,4.74695344 C30.9550183,4.07698634 30.6262551,3.4825582 30.1225731,3.11757085 L30.1225731,3.11757085 Z M30.1225731,3.11757085 C30.3522858,2.33676619 30.0895563,1.49242409 29.4531045,0.984124494 C29.092027,0.693970142 28.6550811,0.547834008 28.2118129,0.547834008 C27.8619751,0.547834008 27.5121374,0.639610324 27.1981265,0.828104757 C26.5743194,1.19591599 25.9217105,1.49101215 25.2402997,1.69927379 C23.9378918,0.698205972 22.3228779,0.141194332 20.662905,0.141194332 C16.8582442,0.141194332 13.7061923,2.99331984 13.2095351,6.68131579 C10.1762032,6.02899798 7.41262573,4.3494914 5.42178216,1.89553391 C5.04244006,1.42535678 4.4734269,1.15708755 3.87912427,1.15708755 C3.82924781,1.15708755 3.7765614,1.16061741 3.72317251,1.16414727 C3.07126608,1.2156832 2.4889057,1.58490638 2.15944006,2.15109565 C1.49067398,3.30253543 1.1387288,4.61564271 1.1387288,5.95345901 C1.1387288,6.85710273 1.29819298,7.73603745 1.59323684,8.55708249 C1.27571345,8.91995192 1.09166228,9.39012905 1.09166228,9.8871331 C1.09166228,11.8695015 1.83629678,13.6923203 3.07688596,15.0619054 C3.00031506,15.4035956 3.01225731,15.7650531 3.12395249,16.1109793 C3.55317105,17.462209 4.33854971,18.6249443 5.35434357,19.5123507 C4.6947098,19.6627227 4.01189401,19.7396736 3.31924342,19.7396736 C2.96027339,19.7396736 2.59708845,19.7163765 2.23109357,19.6747242 C2.15382018,19.6648406 2.07654678,19.6598988 1.99786842,19.6598988 C1.16472076,19.6598988 0.410251462,20.1837298 0.127149854,20.9906554 C-0.186861111,21.8660602 0.145414474,22.8452429 0.923768275,23.3486007 C3.78358626,25.1890688 7.08807749,26.1626037 10.4789744,26.1626037 C21.476383,26.1626037 28.0853655,17.2673608 28.2040855,8.58461538 C29.0990519,7.81863613 29.8858355,6.93687753 30.5531966,5.95275304 C30.8053889,5.61812247 30.9550183,5.20230516 30.9550183,4.74695344 C30.9550183,4.07698634 30.6262551,3.4825582 30.1225731,3.11757085 L30.1225731,3.11757085 Z M26.1970848,7.6251999 C26.2097295,7.86311235 26.2146469,8.10314271 26.2146469,8.34387905 C26.2146469,15.6888082 20.6516652,24.1576442 10.4789744,24.1576442 C7.3564269,24.1576442 4.44883991,23.2377632 1.99997588,21.6606225 C2.43059942,21.7086285 2.8731652,21.7389853 3.31924342,21.7389853 C5.91071199,21.7389853 8.29494737,20.849461 10.188848,19.3577429 C7.76597588,19.3146786 5.72525585,17.7057692 5.02066301,15.4981959 C5.35855848,15.5631452 5.70558626,15.5991498 6.0589364,15.5991498 C6.56472588,15.5991498 7.0536557,15.5299646 7.51659357,15.4035956 C4.98624123,14.8903543 3.07899342,12.6467763 3.07899342,9.95137652 L3.07899342,9.8821913 C3.82503289,10.2973026 4.67855263,10.5472166 5.58475877,10.5754555 C4.10110965,9.57862348 3.12605994,7.87581984 3.12605994,5.94851721 C3.12605994,4.93050607 3.39862427,3.97673836 3.87490936,3.15569332 C6.60055263,6.51823634 10.6770753,8.73004555 15.2741396,8.96160425 C15.1786016,8.55637652 15.1322376,8.12996964 15.1322376,7.69438512 C15.1322376,4.62764423 17.6077961,2.13909413 20.6607975,2.13909413 C22.2526294,2.13909413 23.690617,2.81400304 24.699386,3.89202176 C25.9575373,3.64422571 27.1426301,3.18181427 28.2111104,2.54432186 C27.7973465,3.8411918 26.9199423,4.93050607 25.7798085,5.61812247 C26.8974627,5.4853998 27.9617281,5.18677379 28.9550424,4.74271761 C28.2153253,5.86309464 27.2789123,6.84157136 26.1970848,7.6251999 L26.1970848,7.6251999 Z" id="Shape"></path>
            </g>
        </g>
    </g>
</svg>