<?xml version="1.0" encoding="UTF-8"?>
<svg width="98px" height="59px" viewBox="0 0 98 59" version="1.1" xmlns="http://www.w3.org/2000/svg" xmlns:xlink="http://www.w3.org/1999/xlink">
    <!-- Generator: Sketch 42 (36781) - http://www.bohemiancoding.com/sketch -->
    <title>noun_859052_cc</title>
    <desc>Created with Sketch.</desc>
    <defs></defs>
    <g id="Page-1" stroke="none" stroke-width="1" fill="none" fill-rule="evenodd">
        <g id="Desktop-HD-Copy-5" transform="translate(-959.000000, -361.000000)" fill="#FFFFFF">
            <g id="noun_859052_cc" transform="translate(959.000000, 361.000000)">
                <g id="Group">
                    <path d="M48.9957716,13.2839728 C49.9978321,13.2839728 50.856741,12.444985 50.856741,11.466166 L50.856741,2.09746938 C50.856741,1.11865034 49.9978321,0.279662584 48.9957716,0.279662584 C47.9937112,0.279662584 47.1348023,1.11865034 47.1348023,2.09746938 L47.1348023,11.466166 C47.1348023,12.444985 47.9937112,13.2839728 48.9957716,13.2839728 L48.9957716,13.2839728 Z" id="Shape"></path>
                    <path d="M34.1080169,14.2627918 C34.3943199,15.1017796 35.1100773,15.5212734 35.9689863,15.5212734 C36.1121377,15.5212734 36.3984407,15.5212734 36.5415922,15.3814421 C37.5436526,15.1017796 38.1162586,13.9831292 37.8299556,13.0043102 L34.9669258,4.05510747 C34.6806229,3.07628843 33.535411,2.51696326 32.5333505,2.79662584 C31.5312901,3.07628843 30.9586842,4.19493876 31.2449872,5.17375781 L34.1080169,14.2627918 L34.1080169,14.2627918 Z" id="Shape"></path>
                    <path d="M8.91335507,29.2247401 C9.34280953,29.2247401 9.91541548,29.0849088 10.2017185,28.6654149 C10.9174759,27.9662584 10.9174759,26.7077768 10.2017185,26.0086203 L3.47359853,19.4365496 C2.75784109,18.7373931 1.4694777,18.7373931 0.753720264,19.4365496 C0.0379628255,20.1357061 0.0379628255,21.3941877 0.753720264,22.0933442 L7.48184019,28.6654149 C7.91129465,29.0849088 8.4839006,29.2247401 8.91335507,29.2247401 L8.91335507,29.2247401 Z" id="Shape"></path>
                    <path d="M20.7949285,20.9746938 C21.0812315,21.534019 21.796989,21.9535129 22.5127464,21.9535129 C22.7990494,21.9535129 23.2285038,21.8136816 23.5148068,21.6738503 C24.3737157,21.1145251 24.8031702,19.9958748 24.2305643,19.156887 L19.5065652,11.0466721 C18.9339592,10.2076843 17.7887473,9.78819045 16.9298384,10.3475156 C16.0709295,10.9068408 15.641475,12.0254911 16.2140809,12.8644789 L20.7949285,20.9746938 L20.7949285,20.9746938 Z" id="Shape"></path>
                    <path d="M61.4499511,14.6822857 C61.5931026,14.6822857 61.8794055,14.822117 62.022557,14.822117 C62.8814659,14.822117 63.5972234,14.2627918 63.8835264,13.5636353 L66.7465561,4.61443264 C67.0328591,3.6356136 66.4602531,2.51696326 65.4581927,2.23730067 C64.4561323,1.95763809 63.3109204,2.51696326 63.0246174,3.4957823 L60.1615877,12.444985 C59.8752847,13.2839728 60.4478907,14.2627918 61.4499511,14.6822857 L61.4499511,14.6822857 Z" id="Shape"></path>
                    <path d="M97.0946715,18.5975619 C96.3789141,17.8984054 95.0905507,17.8984054 94.3747933,18.5975619 L87.6466733,25.1696326 C86.9309159,25.868789 86.9309159,27.1272707 87.6466733,27.8264271 C88.0761278,28.245921 88.5055823,28.3857523 88.9350367,28.3857523 C89.3644912,28.3857523 89.9370971,28.245921 90.2234001,27.8264271 L96.95152,21.2543564 C97.9535804,20.4153687 97.9535804,19.2967183 97.0946715,18.5975619 L97.0946715,18.5975619 Z" id="Shape"></path>
                    <path d="M74.6198879,20.8348625 C74.9061909,20.9746938 75.1924939,21.1145251 75.6219484,21.1145251 C76.3377058,21.1145251 76.9103117,20.8348625 77.3397662,20.1357061 L82.0637653,12.0254911 C82.6363713,11.1865034 82.2069168,9.92802174 81.3480079,9.50852787 C80.4890989,8.9492027 79.2007356,9.36869657 78.7712811,10.2076843 L74.047282,18.3178993 C73.3315246,19.156887 73.760979,20.2755374 74.6198879,20.8348625 L74.6198879,20.8348625 Z" id="Shape"></path>
                    <path d="M49.2820746,22.2331755 C33.535411,22.2331755 18.7908077,28.245921 7.62499168,39.1527618 C6.90923424,39.8519183 6.90923424,41.1103999 7.62499168,41.8095564 C18.7908077,52.7163971 33.535411,58.7291427 49.2820746,58.7291427 C65.0287383,58.7291427 79.7733415,52.7163971 90.9391575,41.8095564 C91.654915,41.1103999 91.654915,39.8519183 90.9391575,39.1527618 C79.7733415,28.245921 65.0287383,22.2331755 49.2820746,22.2331755 L49.2820746,22.2331755 Z M49.2820746,54.8138665 C35.2532288,54.8138665 21.9401405,49.6401087 11.7763848,40.4112434 C32.8196535,21.2543564 65.7444957,21.2543564 86.9309159,40.4112434 C76.6240088,49.77994 63.3109204,54.8138665 49.2820746,54.8138665 L49.2820746,54.8138665 Z" id="Shape"></path>
                    <path d="M37.6868041,40.4112434 C37.6868041,46.7036516 42.8402577,51.7375781 49.2820746,51.7375781 C55.7238916,51.7375781 60.8773451,46.7036516 60.8773451,40.4112434 C60.8773451,38.5934366 60.4478907,36.9154611 59.5889817,35.3773169 C59.3026788,37.0552924 57.8711639,38.3137741 56.153346,38.3137741 C54.1492252,38.3137741 52.5745588,36.7756298 52.5745588,34.8179917 C52.5745588,32.8603537 54.1492252,31.3222094 56.153346,31.3222094 L56.2964975,31.3222094 C54.2923767,29.9238965 51.8588014,28.9450775 49.2820746,28.9450775 C42.8402577,29.0849088 37.6868041,34.1188353 37.6868041,40.4112434 L37.6868041,40.4112434 Z" id="Shape"></path>
                </g>
            </g>
        </g>
    </g>
</svg>